<svg width="196" height="137" viewBox="0 0 196 137" fill="none" xmlns="http://www.w3.org/2000/svg">
<path d="M166.096 71.4542C165.51 82.4278 162.217 93.3718 156.61 102.83C147.219 118.676 131.485 131.052 111.486 134.805C101.502 136.597 94.2404 136.37 86.0852 135.119C80.2022 133.809 76.4985 129.03 80.4486 123.35C85.2888 116.387 92.1491 111.812 98.9966 107.236C118.97 93.8886 140.186 82.7323 161.598 71.9215C163.992 70.7146 166.264 68.3269 166.096 71.4542Z" fill="#A13974"/>
<path d="M180.306 45.8493C185.336 41.8702 190.195 36.7584 193.637 31.2819L193.643 31.2778L193.649 31.2736C197.437 25.2428 195.286 19.7977 188.346 18.1471C180.367 16.2482 173.602 17.0129 165.436 18.1471C163.447 18.4233 162.94 18.8517 162.26 19.2813C160.882 20.1512 160.73 22.807 162.714 23.1376C166.344 23.3645 178.236 22.5522 181.088 23.8181C189.214 27.4257 166.978 39.4369 164.056 41.762C162.303 43.1547 161.463 42.9875 160.477 40.7948C152.744 23.6025 140.151 11.412 122.553 4.49034C111.524 0.154092 100.161 -0.838608 88.4221 0.644988C82.0962 1.44416 77.1335 3.18159 71.3216 5.44573C69.405 6.19237 66.8695 7.46422 65.1062 8.4775C60.9731 10.848 57.1692 13.5068 53.707 16.4688C50.6915 19.0487 52.4627 23.6672 56.414 24.0382L129.164 30.8682C132.393 31.1713 133.988 34.9422 131.958 37.4701L91.3821 89.3527C89.9063 91.1902 91.7907 94.2202 93.9788 93.3445C110.486 86.7196 126.534 78.6799 142.423 70.6907C155.673 64.0281 168.705 55.0251 180.306 45.8493Z" fill="#FB5B62"/>
<path fill-rule="evenodd" clip-rule="evenodd" d="M104.73 50.2846C107.32 47.5099 105.039 43.0137 101.27 43.465L35.3704 51.3574C33.3771 51.5961 31.7184 53.0327 31.3161 54.9994C28.7818 67.3874 29.7928 79.8632 34.5611 92.3506C36.3467 97.0287 36.4586 97.1634 31.6384 97.7561C31.0099 97.8333 30.3801 97.9186 29.7493 98.0042C26.1152 98.4968 22.447 98.9941 18.7905 97.9561C9.95196 95.4383 23.5461 87.0659 24.5725 83.4884C25.3304 80.8466 21.7396 79.8571 19.4945 81.4426C12.3004 86.5231 5.4514 92.452 1.20434 100.292C0.296773 102.107 0.40903 104.377 0.750489 105.604C3.26522 114.639 22.7348 112.999 29.1492 111.847C37.5543 110.338 43.6231 109.79 51.7893 107.295C54.0165 106.614 54.0577 106.388 57.4603 102.882C74.7001 86.8794 90.4768 65.0613 104.73 50.2846Z" fill="#EFA16D"/>
</svg>
