<?xml version="1.0" encoding="utf-8"?>
<!-- Generator: Adobe Illustrator 25.0.0, SVG Export Plug-In . SVG Version: 6.00 Build 0)  -->
<svg version="1.1" id="Layer_1" xmlns="http://www.w3.org/2000/svg" xmlns:xlink="http://www.w3.org/1999/xlink" x="0px" y="0px"
	 viewBox="0 0 188.7 190.2" style="enable-background:new 0 0 188.7 190.2;" xml:space="preserve">
<style type="text/css">
	.st0{fill-rule:evenodd;clip-rule:evenodd;fill:url(#SVGID_1_);}
	.st1{fill-rule:evenodd;clip-rule:evenodd;fill:url(#SVGID_2_);}

	@media (prefers-color-scheme: dark) {
		.st0{fill:#fff;}
		.st1{fill:#fff;}
	}
</style>
<g id="Layer_x0020_1">
	<g id="_823292720">
		<g>
			
				<linearGradient id="SVGID_1_" gradientUnits="userSpaceOnUse" x1="7200.2246" y1="8474.8555" x2="8628.7441" y2="6264.5361" gradientTransform="matrix(7.199757e-02 0 0 7.199757e-02 -461.7866 -401.7524)">
				<stop  offset="0" style="stop-color:#A33150"/>
				<stop  offset="0.4" style="stop-color:#C53347"/>
				<stop  offset="1" style="stop-color:#E7363E"/>
			</linearGradient>
			<path class="st0" d="M163.4,107.5c8.6,0,15.6,6.9,15.6,15.6c0,0.3-0.1,0.6-0.1,0.9c6.2,7.1,9.8,16.3,9.8,26.1
				c0,22-18.1,40.1-40.1,40.1H40C18,190.1,0,172,0,150c0-10.7,4.3-21,12-28.5L66.5,68c-0.2-0.9-0.3-1.8-0.3-2.7
				c0-8.6,7-15.6,15.6-15.6s15.6,6.9,15.6,15.6c0,8.6-7,15.5-15.6,15.5c-1,0-2-0.1-3-0.3c-5.8,5.7-11.5,11.3-17.2,17
				c-7.9,7.8-15.8,15.8-23.3,24c-5.1,5.5-11.4,12.3-15.3,18.7c-1.7,2.9-2.4,6.4-2.4,9.8c0,10.8,8.8,19.7,19.6,19.7h108.6
				c10.8,0,19.7-8.9,19.7-19.7c0-3.7-1.7-7.7-4-11.4c-0.3,0-0.5,0.1-0.8,0.1c-8.6,0-15.6-7-15.6-15.6
				C147.9,114.4,154.8,107.5,163.4,107.5z"/>
			
				<linearGradient id="SVGID_2_" gradientUnits="userSpaceOnUse" x1="6769.0054" y1="7614.0239" x2="8297.1953" y2="5249.4941" gradientTransform="matrix(7.199757e-02 0 0 7.199757e-02 -461.7866 -401.7524)">
				<stop  offset="0" style="stop-color:#A33150"/>
				<stop  offset="0.4" style="stop-color:#C53347"/>
				<stop  offset="1" style="stop-color:#E7363E"/>
			</linearGradient>
			<path class="st1" d="M106.9,109.3c1,0,2,0.1,3,0.3c5.8-5.6,11.4-11.3,17.2-17c7.8-7.8,15.8-15.8,23.3-24
				c5-5.5,11.3-12.3,15.3-18.7c1.8-3,2.5-6.4,2.5-9.8c0-10.8-8.9-19.7-19.7-19.7H40c-10.8,0-19.6,8.9-19.6,19.7
				c0,3.7,1.6,7.7,4,11.4c0.3,0,0.6,0,0.9,0c8.6,0,15.6,7,15.6,15.6s-7,15.6-15.6,15.6S9.7,75.6,9.7,67c0-0.3,0-0.6,0-0.9
				C3.6,59,0,49.8,0,40C0,18,18,0,40,0h108.6c22,0,40.1,18.1,40.1,40c0,10.8-4.4,21-12,28.6l-54.4,53.5c0.1,0.9,0.2,1.8,0.2,2.7
				c0,8.6-6.9,15.6-15.6,15.6c-8.6,0-15.6-7-15.6-15.6S98.3,109.3,106.9,109.3z"/>
		</g>
	</g>
</g>
</svg>
